<svg width="44" height="44" viewBox="0 0 44 44" fill="none" xmlns="http://www.w3.org/2000/svg">
<path d="M16.5 33C20.8761 33 25.0729 31.2616 28.1673 28.1673C31.2616 25.0729 33 20.8761 33 16.5M16.5 33C16.5 29.9624 14.0376 27.5 11 27.5C7.96243 27.5 5.5 29.9624 5.5 33C5.5 36.0376 7.96243 38.5 11 38.5C14.0376 38.5 16.5 36.0376 16.5 33ZM33 16.5L33 38.5M33 16.5C36.0376 16.5 38.5 14.0376 38.5 11C38.5 7.96244 36.0376 5.5 33 5.5C29.9624 5.5 27.5 7.96244 27.5 11C27.5 14.0376 29.9624 16.5 33 16.5Z" stroke="#F5F6FA" stroke-width="2" stroke-linecap="round"/>
<path d="M11 27.5L11 5.5M11 27.5C7.96243 27.5 5.5 29.9624 5.5 33C5.49999 36.0376 7.96243 38.5 11 38.5C14.0376 38.5 16.5 36.0376 16.5 33C16.5 29.9624 14.0376 27.5 11 27.5Z" stroke="#F5F6FA" stroke-width="2" stroke-linecap="round"/>
</svg>
