<svg
    width="219"
    height="82"
    viewBox="0 0 219 82"
    fill="none"
    xmlns="http://www.w3.org/2000/svg">

    <style>
        .link-text {
        fill: #252936;
        }

        @media (prefers-color-scheme: dark) {
        .link-text {
        fill: #F1F3F7;
        }
        }
    </style>

    <rect
        y="9"
        width="64"
        height="64"
        rx="16"
        fill="#6353C7"/>

    <path
        d="M26.5 52C30.8761 52 35.0729 50.2616 38.1673 47.1673C41.2616 44.0729 43 39.8761 43 35.5M21 46.5C17.9624 46.5 15.5 48.9624 15.5 52C15.5 55.0376 17.9624 57.5 21 57.5C24.0376 57.5 26.5 55.0376 26.5 52C26.5 48.9624 24.0376 46.5 21 46.5ZM43 35.5L43 57.5M43 35.5C46.0376 35.5 48.5 33.0376 48.5 30C48.5 26.9624 46.0376 24.5 43 24.5C39.9624 24.5 37.5 26.9624 37.5 30C37.5 33.0376 39.9624 35.5 43 35.5ZM21 46.5L21 24.5"
        stroke="#F5F6FA"
        stroke-width="2.3"
        stroke-linecap="round"/>

    <path
        class="link-text"
        d="M85.7614 52.5V29.2273H91.3864V47.9318H101.068V52.5H85.7614ZM103.98 52.5V35.0455H109.537V52.5H103.98ZM106.764 33.0114C105.984 33.0114 105.313 32.7538 104.753 32.2386C104.192 31.7159 103.912 31.0871 103.912 30.3523C103.912 29.625 104.192 29.0038 104.753 28.4886C105.313 27.9659 105.984 27.7045 106.764 27.7045C107.552 27.7045 108.223 27.9659 108.776 28.4886C109.336 29.0038 109.616 29.625 109.616 30.3523C109.616 31.0871 109.336 31.7159 108.776 32.2386C108.223 32.7538 107.552 33.0114 106.764 33.0114ZM118.631 42.5455V52.5H113.074V35.0455H118.358V38.25H118.551C118.938 37.1818 119.597 36.3447 120.528 35.7386C121.46 35.125 122.57 34.8182 123.858 34.8182C125.085 34.8182 126.15 35.0947 127.051 35.6477C127.96 36.1932 128.665 36.9583 129.165 37.9432C129.672 38.9205 129.922 40.0644 129.915 41.375V52.5H124.358V42.4659C124.366 41.4962 124.119 40.7386 123.619 40.1932C123.127 39.6477 122.441 39.375 121.562 39.375C120.979 39.375 120.464 39.5038 120.017 39.7614C119.578 40.0114 119.237 40.3712 118.994 40.8409C118.759 41.3106 118.638 41.8788 118.631 42.5455ZM138.366 47.9205L138.389 41.2955H139.162L144.071 35.0455H150.366L143.071 44H141.605L138.366 47.9205ZM133.355 52.5V29.2273H138.912V52.5H133.355ZM144.196 52.5L139.628 45.25L143.287 41.3068L150.616 52.5H144.196Z"/>

    <path
        d="M157.139 52.5L151.866 35.0455H154.003L158.139 49.4432H158.287L162.412 35.0455H164.56L168.651 49.4091H168.81L172.946 35.0455H175.082L169.81 52.5H167.719L163.582 38.1932H163.366L159.23 52.5H157.139ZM179.037 52.5V35.0455H181.071V52.5H179.037ZM180.071 32.0455C179.654 32.0455 179.298 31.9053 179.003 31.625C178.707 31.3371 178.56 30.9924 178.56 30.5909C178.56 30.1894 178.707 29.8485 179.003 29.5682C179.298 29.2803 179.654 29.1364 180.071 29.1364C180.488 29.1364 180.844 29.2803 181.139 29.5682C181.435 29.8485 181.582 30.1894 181.582 30.5909C181.582 30.9924 181.435 31.3371 181.139 31.625C180.844 31.9053 180.488 32.0455 180.071 32.0455ZM198.148 38.875L196.295 39.3977C196.114 38.875 195.856 38.4015 195.523 37.9773C195.189 37.553 194.754 37.2159 194.216 36.9659C193.686 36.7159 193.027 36.5909 192.239 36.5909C191.057 36.5909 190.087 36.8712 189.33 37.4318C188.572 37.9924 188.193 38.7159 188.193 39.6023C188.193 40.3523 188.451 40.9621 188.966 41.4318C189.489 41.8939 190.292 42.2614 191.375 42.5341L194.011 43.1818C195.473 43.5379 196.568 44.1023 197.295 44.875C198.03 45.6477 198.398 46.6174 198.398 47.7841C198.398 48.7689 198.125 49.6439 197.58 50.4091C197.034 51.1742 196.273 51.7765 195.295 52.2159C194.326 52.6477 193.201 52.8636 191.92 52.8636C190.216 52.8636 188.811 52.4811 187.705 51.7159C186.598 50.9432 185.89 49.8295 185.58 48.375L187.523 47.8977C187.773 48.9356 188.261 49.7197 188.989 50.25C189.723 50.7803 190.689 51.0455 191.886 51.0455C193.227 51.0455 194.299 50.7462 195.102 50.1477C195.905 49.5417 196.307 48.7841 196.307 47.875C196.307 47.1705 196.072 46.5795 195.602 46.1023C195.133 45.6174 194.42 45.2614 193.466 45.0341L190.614 44.3523C189.098 43.9886 187.977 43.4129 187.25 42.625C186.523 41.8371 186.159 40.8598 186.159 39.6932C186.159 38.7311 186.42 37.8864 186.943 37.1591C187.466 36.4242 188.186 35.8485 189.102 35.4318C190.019 35.0152 191.064 34.8068 192.239 34.8068C193.837 34.8068 195.114 35.1705 196.068 35.8977C197.03 36.6174 197.723 37.6098 198.148 38.875ZM209.884 52.8636C208.255 52.8636 206.846 52.4848 205.656 51.7273C204.467 50.9621 203.546 49.9053 202.895 48.5568C202.251 47.2008 201.929 45.6402 201.929 43.875C201.929 42.1174 202.251 40.5568 202.895 39.1932C203.546 37.822 204.444 36.75 205.588 35.9773C206.74 35.197 208.069 34.8068 209.577 34.8068C210.524 34.8068 211.437 34.9811 212.315 35.3295C213.194 35.6705 213.982 36.197 214.679 36.9091C215.384 37.6136 215.94 38.5038 216.349 39.5795C216.759 40.6477 216.963 41.9129 216.963 43.375V44.375H203.327V42.5909H214.895C214.895 41.4697 214.668 40.4621 214.213 39.5682C213.766 38.6667 213.141 37.9545 212.338 37.4318C211.543 36.9091 210.622 36.6477 209.577 36.6477C208.471 36.6477 207.497 36.9432 206.656 37.5341C205.815 38.125 205.156 38.9053 204.679 39.875C204.209 40.8447 203.971 41.9053 203.963 43.0568V44.125C203.963 45.5114 204.202 46.7235 204.679 47.7614C205.164 48.7917 205.849 49.5909 206.736 50.1591C207.622 50.7273 208.671 51.0114 209.884 51.0114C210.709 51.0114 211.433 50.8826 212.054 50.625C212.683 50.3674 213.209 50.0227 213.634 49.5909C214.065 49.1515 214.391 48.6705 214.611 48.1477L216.531 48.7727C216.266 49.5076 215.83 50.1856 215.224 50.8068C214.626 51.428 213.876 51.928 212.974 52.3068C212.08 52.678 211.05 52.8636 209.884 52.8636Z"
        fill="#6353C7"/>
</svg>